<?xml version="1.0" encoding="UTF-8"?>
<!DOCTYPE svg PUBLIC "-//W3C//DTD SVG 1.1//EN" "http://www.w3.org/Graphics/SVG/1.1/DTD/svg11.dtd">
<!-- Creator: CorelDRAW -->
<svg xmlns="http://www.w3.org/2000/svg" xml:space="preserve" width="35px" height="35px" style="shape-rendering:geometricPrecision; text-rendering:geometricPrecision; image-rendering:optimizeQuality; fill-rule:evenodd; clip-rule:evenodd"
viewBox="0 0 35 35"
 xmlns:xlink="http://www.w3.org/1999/xlink">
 <defs>
  <style type="text/css">
   <![CDATA[
    .str0 {stroke:#1F1A17;stroke-width:2.06695}
    .fil0 {fill:none}
    .fil1 {fill:#1F1A17;fill-rule:nonzero}
   ]]>
  </style>
 </defs>
 <g id="Vrstva_x0020_1">
  <metadata id="CorelCorpID_0Corel-Layer"/>
  <rect class="fil0 str0" x="1.07048" y="0.99667" width="32.8188" height="32.9215"/>
  <path class="fil1" d="M13.5571 21.1362c-0.354688,0.141792 -0.696561,0.248447 -1.0281,0.317069 -0.331538,0.069036 -0.677545,0.104174 -1.03595,0.104174 -0.573784,0 -1.08225,-0.0851582 -1.52458,-0.254234 -0.441913,-0.169076 -0.813136,-0.421243 -1.11739,-0.754848 -0.302187,-0.333605 -0.533685,-0.748648 -0.69036,-1.24265 -0.156261,-0.494 -0.235218,-1.06985 -0.235218,-1.72631 0,-0.671344 0.0851582,-1.26786 0.256301,-1.79121 0.171143,-0.523351 0.41711,-0.965264 0.733766,-1.32615 0.317069,-0.360475 0.702761,-0.635792 1.15749,-0.825538 0.454315,-0.187679 0.963197,-0.283585 1.53037,-0.283585 0.183545,0 0.354274,0.00413389 0.515083,0.0124017 0.162462,0.00826778 0.318723,0.0231498 0.475397,0.0458862 0.154194,0.0231498 0.310455,0.052087 0.469197,0.0876385 0.158328,0.0376184 0.322857,0.0855715 0.494,0.141792l0 1.49068c-0.346007,-0.162462 -0.675478,-0.279451 -0.988413,-0.348074 -0.314589,-0.069036 -0.598174,-0.104174 -0.854889,-0.104174 -0.379491,0 -0.702761,0.0686226 -0.971464,0.204214 -0.269116,0.135592 -0.490279,0.327404 -0.663076,0.573371 -0.17321,0.248033 -0.300534,0.539886 -0.381558,0.880105 -0.0814376,0.339806 -0.12319,0.715163 -0.12319,1.12152 0,0.431578 0.0417523,0.81727 0.125257,1.15708 0.0835046,0.340219 0.212482,0.627938 0.387759,0.865637 0.175277,0.235632 0.400161,0.414629 0.673411,0.539886 0.271183,0.12319 0.59652,0.185612 0.969811,0.185612 0.135178,0 0.281105,-0.0124017 0.437779,-0.0396854 0.156261,-0.0248033 0.314589,-0.0603548 0.475397,-0.104174 0.162462,-0.0417523 0.32079,-0.0938393 0.477464,-0.152127 0.156261,-0.0587012 0.302187,-0.119056 0.435712,-0.179411l0 1.40511z"/>
  <path id="1" class="fil1" d="M20.5339 19.0345c0,0.435712 -0.0793707,0.813136 -0.239766,1.13641 -0.162462,0.321203 -0.385692,0.585772 -0.675478,0.796601 -0.289786,0.210415 -0.634139,0.365023 -1.03223,0.46713 -0.400161,0.102107 -0.836286,0.152127 -1.30714,0.152127 -0.419177,0 -0.825951,-0.0231498 -1.21578,-0.0731699 -0.391893,-0.0479531 -0.777585,-0.128977 -1.16121,-0.2439l0 -1.48448c0.187679,0.0644887 0.383625,0.127324 0.585772,0.183545 0.204214,0.0562209 0.408428,0.106241 0.615123,0.15006 0.204214,0.0417523 0.410495,0.0752368 0.613056,0.10004 0.204214,0.0252167 0.402228,0.0376184 0.591973,0.0376184 0.285652,0 0.527484,-0.0252167 0.727565,-0.0731699 0.200494,-0.0500201 0.362956,-0.116576 0.488213,-0.202147 0.12691,-0.0855715 0.218683,-0.187679 0.275317,-0.306321 0.0582879,-0.116989 0.0851582,-0.248033 0.0851582,-0.389826 0,-0.19636 -0.0562209,-0.358822 -0.166596,-0.492346 -0.112855,-0.131458 -0.260849,-0.2501 -0.444393,-0.350141 -0.183131,-0.102107 -0.391893,-0.193879 -0.625458,-0.275317 -0.233565,-0.0814376 -0.47333,-0.169076 -0.715163,-0.262502 -0.241833,-0.0938393 -0.479531,-0.200494 -0.715163,-0.319136 -0.233565,-0.116989 -0.441913,-0.264982 -0.625458,-0.439846 -0.183545,-0.17321 -0.331538,-0.383625 -0.441913,-0.625871 -0.112855,-0.241833 -0.169076,-0.533685 -0.169076,-0.875558 0,-0.315002 0.0582879,-0.610989 0.171143,-0.892507 0.114509,-0.281518 0.29392,-0.525418 0.537819,-0.735833 0.2439,-0.210828 0.558902,-0.377424 0.94046,-0.500614 0.383625,-0.124844 0.844554,-0.187679 1.38651,-0.187679 0.158328,0 0.325337,0.00826778 0.498547,0.0231498 0.172797,0.0144686 0.34394,0.0310042 0.512602,0.054154 0.169076,0.0227364 0.331538,0.0479531 0.488213,0.0793707 0.158328,0.0310042 0.302187,0.0624218 0.431578,0.0959063l0 1.37411c-0.129391,-0.0504335 -0.27325,-0.0938393 -0.427444,-0.135592 -0.154608,-0.0396854 -0.315002,-0.0752368 -0.479531,-0.106654 -0.164942,-0.0310042 -0.331538,-0.054154 -0.498547,-0.0706895 -0.166596,-0.0144686 -0.325337,-0.0231498 -0.475397,-0.0231498 -0.264569,0 -0.489866,0.0210828 -0.673411,0.0628351 -0.181478,0.0438192 -0.333605,0.102107 -0.450594,0.176931 -0.118643,0.0752368 -0.204214,0.169076 -0.256301,0.279451 -0.054154,0.108721 -0.0793707,0.231498 -0.0793707,0.365023 0,0.167009 0.0545674,0.310869 0.167009,0.431578 0.112442,0.121123 0.260435,0.227364 0.446047,0.32327 0.185612,0.0959063 0.394373,0.185612 0.630005,0.269116 0.233151,0.0830912 0.47333,0.172797 0.719297,0.268703 0.248033,0.0959063 0.487799,0.204628 0.721364,0.327404 0.233565,0.121123 0.44398,0.271183 0.629592,0.446047 0.185612,0.175277 0.333605,0.381558 0.446047,0.619257 0.110788,0.237699 0.167009,0.521284 0.167009,0.846621z"/>
  <polygon id="12" class="fil1" points="25.6111,21.447 23.6198,21.447 21.1825,13.4633 22.886,13.4633 24.237,18.2714 24.6706,19.8456 25.1233,18.1796 26.4598,13.4633 28.0613,13.4633 "/>
 </g>
</svg>
