<?xml version="1.0" encoding="UTF-8"?>
<!DOCTYPE svg PUBLIC "-//W3C//DTD SVG 1.1//EN" "http://www.w3.org/Graphics/SVG/1.1/DTD/svg11.dtd">
<!-- Creator: CorelDRAW -->
<svg xmlns="http://www.w3.org/2000/svg" xml:space="preserve" width="35px" height="35px" style="shape-rendering:geometricPrecision; text-rendering:geometricPrecision; image-rendering:optimizeQuality; fill-rule:evenodd; clip-rule:evenodd"
viewBox="0 0 34.9598 35.0547"
 xmlns:xlink="http://www.w3.org/1999/xlink">
 <defs>
  <style type="text/css">
   <![CDATA[
    .str0 {stroke:#1F1A17;stroke-width:2.07135}
    .fil0 {fill:none}
    .fil1 {fill:#1F1A17;fill-rule:nonzero}
   ]]>
  </style>
 </defs>
 <g id="Vrstva_x0020_1">
  <metadata id="CorelCorpID_0Corel-Layer"/>
  <g id="_135234120">
   <rect id="_135236472" class="fil0 str0" x="1.03547" y="1.03152" width="32.8887" height="32.9916"/>
   <path id="_135259392" class="fil1" d="M10.9065 10.8427l0 -1.24322 2.84603 0 0 4.26656c-0.3658,0.171508 -0.750243,0.299103 -1.14918,0.3803 -0.401427,0.0816112 -0.835996,0.121381 -1.30412,0.121381 -0.555536,0 -1.05515,-0.0857539 -1.498,-0.256847 -0.442854,-0.171508 -0.819011,-0.426284 -1.12847,-0.764742 -0.311117,-0.338873 -0.549322,-0.758528 -0.714615,-1.26021 -0.164879,-0.503338 -0.246491,-1.08456 -0.246491,-1.7449 0,-0.66656 0.0857539,-1.26187 0.258919,-1.7884 0.173579,-0.526537 0.426284,-0.971463 0.758528,-1.33726 0.334316,-0.3658 0.741957,-0.643775 1.22458,-0.835996 0.484696,-0.192221 1.0365,-0.288332 1.65708,-0.288332 0.367872,0 0.724972,0.0335559 1.07379,0.0961106 0.349229,0.062969 0.698045,0.148309 1.04479,0.253119l0 1.48764c-0.302831,-0.142095 -0.637147,-0.259333 -1.00088,-0.351301 -0.365386,-0.0915536 -0.733258,-0.137538 -1.10527,-0.137538 -0.376157,0 -0.708401,0.0646261 -0.994662,0.196364 -0.288332,0.129252 -0.528608,0.315259 -0.722901,0.555536 -0.194293,0.242348 -0.34053,0.537308 -0.440783,0.888194 -0.100253,0.350887 -0.15038,0.748171 -0.15038,1.18688 0,0.426284 0.0397699,0.808655 0.116824,1.14918 0.0774685,0.34053 0.202578,0.630933 0.376157,0.869138 0.173579,0.238205 0.39687,0.42007 0.670703,0.547665 0.273832,0.127181 0.606077,0.19015 0.996733,0.19015 0.0940392,0 0.17565,-0.0041427 0.246491,-0.010771 0.0691831,-0.0041427 0.133809,-0.0144994 0.194293,-0.0269275 0.062969,-0.0124281 0.121381,-0.0252705 0.17565,-0.0418413 0.0542693,-0.0165708 0.112681,-0.0356272 0.173579,-0.0563407l0 -2.04359 -1.35839 0z"/>
   <path id="_1352593921" class="fil1" d="M20.5855 10.6401c0,0.102325 -0.00248562,0.234062 -0.00869967,0.398942 -0.00621405,0.163222 -0.0165708,0.315674 -0.0289989,0.457768l-4.08926 0c0,0.273418 0.0418413,0.513695 0.125524,0.722901 0.0832682,0.208792 0.202578,0.382371 0.355029,0.524466 0.154523,0.140023 0.338458,0.246491 0.551807,0.319816 0.215006,0.0749828 0.45114,0.11061 0.712544,0.11061 0.302831,0 0.62679,-0.0231991 0.971463,-0.0712544 0.344672,-0.045984 0.702187,-0.123038 1.07379,-0.227434l0 1.18688c-0.158665,0.0434983 -0.332244,0.0853396 -0.519909,0.120967 -0.188078,0.0376986 -0.3803,0.0712544 -0.577078,0.0981819 -0.194293,0.0294132 -0.392728,0.0501266 -0.593234,0.0646261 -0.198435,0.0149137 -0.392728,0.0211278 -0.580806,0.0211278 -0.474339,0 -0.898551,-0.0666974 -1.27264,-0.200507 -0.376157,-0.135881 -0.693488,-0.334316 -0.954892,-0.597791 -0.26099,-0.263061 -0.461911,-0.589092 -0.601934,-0.975605 -0.137538,-0.388585 -0.206721,-0.838068 -0.206721,-1.34803 0,-0.505409 0.0691831,-0.965249 0.206721,-1.37869 0.140023,-0.415927 0.336801,-0.77137 0.589506,-1.06592 0.252705,-0.296617 0.560093,-0.524466 0.921336,-0.685202 0.359586,-0.161151 0.762671,-0.242348 1.2076,-0.242348 0.441197,0 0.831854,0.0687688 1.17031,0.204649 0.338458,0.137952 0.622648,0.328102 0.850496,0.572521 0.227848,0.244419 0.401013,0.536894 0.520323,0.875352 0.118895,0.338458 0.177722,0.710473 0.177722,1.11397zm-1.51913 -0.213349c0.0041427,-0.246491 -0.0252705,-0.459425 -0.0898966,-0.639218 -0.0671117,-0.181864 -0.154523,-0.332244 -0.267618,-0.451554 -0.112681,-0.116824 -0.242348,-0.204649 -0.390656,-0.263061 -0.15038,-0.0563407 -0.30946,-0.0857539 -0.480553,-0.0857539 -0.376157,0 -0.685617,0.125524 -0.925893,0.376157 -0.240276,0.250633 -0.382371,0.606077 -0.428355,1.06343l2.58297 0z"/>
   <path id="_13525939212" class="fil1" d="M27.6625 11.0685c0,0.49091 -0.0687688,0.937907 -0.208792,1.34348 -0.137952,0.407227 -0.338458,0.754385 -0.599863,1.04479 -0.26099,0.290403 -0.580806,0.514109 -0.961106,0.672774 -0.378228,0.158665 -0.810726,0.238205 -1.29749,0.238205 -0.461911,0 -0.873281,-0.0666974 -1.23701,-0.200507 -0.363729,-0.135881 -0.670703,-0.336387 -0.923407,-0.604005 -0.253119,-0.267618 -0.447411,-0.601934 -0.580806,-1.00295 -0.135881,-0.403085 -0.202992,-0.871209 -0.202992,-1.40603 0,-0.493395 0.0712544,-0.942464 0.211278,-1.34596 0.140023,-0.405156 0.342601,-0.749828 0.605662,-1.03402 0.263476,-0.28626 0.585363,-0.507895 0.963592,-0.664489 0.3803,-0.157008 0.808655,-0.236134 1.28714,-0.236134 0.463568,0 0.879495,0.0687688 1.24115,0.204649 0.363315,0.137952 0.672774,0.34053 0.925479,0.610219 0.252705,0.269275 0.444926,0.60152 0.578735,1.00088 0.131738,0.39687 0.198435,0.85671 0.198435,1.3791zm-1.55434 0.0376986c0,-0.645847 -0.121381,-1.13054 -0.3658,-1.4545 -0.242348,-0.323959 -0.599863,-0.486767 -1.07379,-0.486767 -0.261404,0 -0.483039,0.052198 -0.66656,0.152451 -0.183936,0.102325 -0.334316,0.242348 -0.453625,0.42007 -0.116824,0.177722 -0.204649,0.384442 -0.258919,0.620576 -0.056755,0.238205 -0.0836825,0.49091 -0.0836825,0.760599 0,0.647504 0.131738,1.13676 0.392728,1.46486 0.261404,0.329759 0.616433,0.492981 1.07006,0.492981 0.248562,0 0.465639,-0.0501266 0.649575,-0.15038 0.183936,-0.0981819 0.332244,-0.238205 0.447411,-0.415927 0.112681,-0.177722 0.198435,-0.386514 0.256847,-0.62679 0.0563407,-0.240276 0.0857539,-0.499609 0.0857539,-0.77717z"/>
   <path id="_135259392123" class="fil1" d="M9.51578 26.5141c0,0.376157 -0.058412,0.718758 -0.177722,1.02987 -0.116824,0.30946 -0.290403,0.574592 -0.519909,0.796227 -0.227848,0.219563 -0.512037,0.390656 -0.850496,0.509966 -0.338458,0.120967 -0.731601,0.181864 -1.18067,0.181864 -0.330173,0 -0.649989,-0.0397699 -0.954892,-0.117238 -0.307388,-0.0770542 -0.574592,-0.17565 -0.802441,-0.294546l0 -1.45657c0.102325,0.0857539 0.221634,0.165294 0.357515,0.238205 0.137538,0.0733258 0.284189,0.137952 0.438712,0.194293 0.154523,0.0546836 0.313188,0.0961106 0.47641,0.127595 0.162808,0.0314845 0.32603,0.045984 0.484696,0.045984 0.133809,0 0.273832,-0.0248562 0.417998,-0.0729115 0.146237,-0.0501266 0.275904,-0.131738 0.388585,-0.244833 0.114753,-0.114753 0.208792,-0.265133 0.282118,-0.45114 0.0729115,-0.183936 0.11061,-0.413856 0.11061,-0.687274l0 -4.16258 -2.89616 0 0 -1.24322 4.42564 0 0 5.60631z"/>
   <path id="_1352593921234" class="fil1" d="M17.1135 26.4909c0,0.43664 -0.0795398,0.814869 -0.240276,1.13883 -0.162808,0.321888 -0.386514,0.58702 -0.676917,0.798298 -0.290403,0.210863 -0.63549,0.3658 -1.03443,0.468125 -0.401013,0.102325 -0.838068,0.152451 -1.30992,0.152451 -0.42007,0 -0.827711,-0.0231991 -1.21837,-0.0733258 -0.392728,-0.0480553 -0.779242,-0.129252 -1.16368,-0.244419l0 -1.48764c0.188078,0.0646261 0.384442,0.127595 0.58702,0.183936 0.204649,0.0563407 0.409299,0.106467 0.616433,0.15038 0.204649,0.0418413 0.41137,0.0753971 0.614362,0.100253 0.204649,0.0252705 0.403085,0.0376986 0.593234,0.0376986 0.28626,0 0.528608,-0.0252705 0.729115,-0.0733258 0.200921,-0.0501266 0.363729,-0.116824 0.489253,-0.202578 0.127181,-0.0857539 0.219149,-0.188078 0.275904,-0.306974 0.058412,-0.117238 0.0853396,-0.248562 0.0853396,-0.390656 0,-0.196778 -0.0563407,-0.359586 -0.166951,-0.493395 -0.113096,-0.131738 -0.261404,-0.250633 -0.44534,-0.350887 -0.183522,-0.102325 -0.392728,-0.194293 -0.62679,-0.275904 -0.234062,-0.0816112 -0.474339,-0.169436 -0.716687,-0.263061 -0.242348,-0.0940392 -0.480553,-0.200921 -0.716687,-0.319816 -0.234062,-0.117238 -0.442854,-0.265547 -0.62679,-0.440783 -0.183936,-0.173579 -0.332244,-0.384442 -0.442854,-0.627205 -0.113096,-0.242348 -0.169436,-0.534822 -0.169436,-0.877423 0,-0.315674 0.058412,-0.612291 0.171508,-0.894409 0.114753,-0.282118 0.294546,-0.526537 0.538965,-0.7374 0.244419,-0.211278 0.560093,-0.378228 0.942464,-0.501681 0.384442,-0.125109 0.846353,-0.188078 1.38946,-0.188078 0.158665,0 0.32603,0.0082854 0.499609,0.0231991 0.173165,0.0144994 0.344672,0.0310702 0.513695,0.0542693 0.169436,0.0227848 0.332244,0.0480553 0.489253,0.0795398 0.158665,0.0310702 0.302831,0.0625547 0.432498,0.0961106l0 1.37703c-0.129666,-0.0505409 -0.273832,-0.0940392 -0.428355,-0.135881 -0.154937,-0.0397699 -0.315674,-0.0753971 -0.480553,-0.106882 -0.165294,-0.0310702 -0.332244,-0.0542693 -0.499609,-0.0708401 -0.166951,-0.0144994 -0.32603,-0.0231991 -0.47641,-0.0231991 -0.265133,0 -0.49091,0.0211278 -0.674846,0.062969 -0.181864,0.0439126 -0.334316,0.102325 -0.451554,0.177307 -0.118895,0.0753971 -0.204649,0.169436 -0.256847,0.280046 -0.0542693,0.108953 -0.0795398,0.231991 -0.0795398,0.3658 0,0.167365 0.0546836,0.311531 0.167365,0.432498 0.112681,0.121381 0.26099,0.227848 0.446997,0.323959 0.186007,0.0961106 0.395213,0.186007 0.631347,0.26969 0.233648,0.0832682 0.474339,0.173165 0.720829,0.269275 0.248562,0.0961106 0.488838,0.205064 0.722901,0.328102 0.234062,0.121381 0.444926,0.271761 0.630933,0.446997 0.186007,0.17565 0.334316,0.382371 0.446997,0.620576 0.111024,0.238205 0.167365,0.522394 0.167365,0.848425z"/>
   <path id="_13525939212345" class="fil1" d="M24.4291 24.8736c0,0.727458 -0.0836825,1.35425 -0.252705,1.88078 -0.169436,0.526537 -0.403499,0.959035 -0.698045,1.29749 -0.296617,0.338458 -0.643775,0.589092 -1.04065,0.752314 -0.398942,0.162808 -0.823154,0.244419 -1.27678,0.244419 -1.05307,0 -1.84474,-0.348815 -2.37584,-1.04893 -0.53068,-0.700116 -0.795812,-1.71756 -0.795812,-3.05275 0,-0.724972 0.0857539,-1.35176 0.254776,-1.87871 0.169436,-0.526537 0.401013,-0.959035 0.698045,-1.29749 0.296617,-0.338458 0.643361,-0.589092 1.04065,-0.752314 0.39687,-0.164879 0.823154,-0.246491 1.27637,-0.246491 1.05307,0 1.84516,0.349229 2.37584,1.04686 0.528608,0.698045 0.794155,1.71756 0.794155,3.05483zm-1.59038 0.0733258c0,-0.946607 -0.127181,-1.65294 -0.3803,-2.11692 -0.252705,-0.465639 -0.668631,-0.69763 -1.24944,-0.69763 -0.288332,0 -0.534822,0.0604834 -0.739472,0.179793 -0.205064,0.120967 -0.372014,0.296617 -0.505823,0.53068 -0.131738,0.231991 -0.22992,0.518252 -0.290403,0.858781 -0.0604834,0.34053 -0.0919679,0.731186 -0.0919679,1.17197 0,0.946607 0.127595,1.65294 0.382371,2.11899 0.25519,0.466054 0.670703,0.69763 1.2453,0.69763 0.290403,0 0.539379,-0.0604834 0.744029,-0.179379 0.206721,-0.121381 0.376157,-0.299103 0.505409,-0.53068 0.131738,-0.231991 0.225777,-0.518252 0.288746,-0.858781 0.0604834,-0.343015 0.0915536,-0.733672 0.0915536,-1.17445z"/>
   <polygon id="_135259392123456" class="fil1" points="29.187,28.9086 27.0452,24.1341 26.6044,23.1059 26.6044,26.4242 26.6044,28.9086 25.2315,28.9086 25.2315,20.9078 27.0808,20.9078 29.2665,25.7137 29.653,26.65 29.653,23.1187 29.653,20.9078 31.0238,20.9078 31.0238,28.9086 "/>
  </g>
 </g>
</svg>
